<svg xmlns="http://www.w3.org/2000/svg" width="256" height="256" viewBox="0 0 100 100">
  <rect width="100" height="100" rx="20" fill="#f57e01"></rect>
  <path
    fill="#fff"
    d="M37.11 34.45L37.11 34.45Q33.94 34.45 31.78 35.60Q29.62 36.75 28.22 38.80Q26.82 40.86 26.20 43.70Q25.59 46.54 25.59 50.00L25.59 50.00Q25.59 57.99 28.11 61.77Q30.63 65.55 35.53 65.55L35.53 65.55Q36.32 65.55 37.26 65.48Q38.19 65.41 38.98 65.26L38.98 65.26L38.98 48.99L47.84 48.99L47.84 71.24Q46.26 71.82 42.91 72.54Q39.56 73.26 34.81 73.26L34.81 73.26Q30.63 73.26 27.28 71.78Q23.94 70.30 21.56 67.39Q19.18 64.47 17.89 60.12Q16.59 55.76 16.59 50.00L16.59 50.00Q16.59 44.31 18.10 39.96Q19.62 35.60 22.21 32.65Q24.80 29.70 28.33 28.22Q31.86 26.74 35.89 26.74L35.89 26.74Q38.48 26.74 40.53 27.14Q42.58 27.54 44.10 28.04Q45.61 28.54 46.58 29.12Q47.55 29.70 48.06 29.98L48.06 29.98L45.75 37.04Q44.17 36.03 41.86 35.24Q39.56 34.45 37.11 34.45ZM74.55 27.75L83.41 27.75L83.41 72.32L74.55 72.32L74.55 52.66L62.74 52.66L62.74 72.32L53.89 72.32L53.89 27.75L62.74 27.75L62.74 45.32L74.55 45.32L74.55 27.75Z"
  ></path>
</svg>
